<?xml version="1.0" encoding="UTF-8" standalone="no"?>
<!DOCTYPE svg PUBLIC "-//W3C//DTD SVG 1.1//EN" "http://www.w3.org/Graphics/SVG/1.1/DTD/svg11.dtd">
<svg width="100%" height="100%" viewBox="0 0 512 512" version="1.1" xmlns="http://www.w3.org/2000/svg" xmlns:xlink="http://www.w3.org/1999/xlink" xml:space="preserve" xmlns:serif="http://www.serif.com/" style="fill-rule:evenodd;clip-rule:evenodd;stroke-linejoin:round;stroke-miterlimit:2;">
    <g transform="matrix(2.00763,0,0,2.00737,-502.906,-505.962)">
        <circle cx="377.905" cy="379.485" r="119.422" style="fill:rgb(230,235,235);"/>
    </g>
    <g transform="matrix(1.11735,0,0,1.1172,-30.2522,-30.1997)">
        <g id="_-232323ff" serif:id="#232323ff">
            <path d="M102.42,86.34C147.08,45.43 208.56,23.86 268.98,27.41C305.74,29.39 341.96,40.49 373.54,59.41C421.61,87.87 458.53,134.54 474.89,187.98C489.99,235.94 488.66,288.88 470.95,335.96C457.76,371.59 435.51,403.82 406.89,428.8C382.89,449.8 354.41,465.65 323.94,475.02C317.66,476.76 310.58,473.99 306.85,468.73C303.35,463.63 303,456.56 306.36,451.3C308.54,447.31 312.66,444.92 316.92,443.7C350.06,433.11 380.24,413.46 403.36,387.47C428.95,358.92 445.93,322.77 451.52,284.84C459.65,231.53 444.59,175.2 410.9,133.1C388.21,104.45 357.39,82.31 322.97,69.98C287.38,57.05 248.03,54.89 211.18,63.55C169.89,73.04 132,96.41 104.87,128.93C81.49,156.72 65.98,191.09 60.77,227.05C55.25,264.63 60.77,303.8 76.7,338.3C90.57,368.56 112.29,395.14 139.1,414.85C171.58,438.89 211.6,452.56 252.01,453.22C256.19,453.26 260.68,453.25 264.29,455.67C270.43,459.34 273.46,467.21 271.33,474.06C269.74,478.88 265.83,482.94 260.98,484.53C257.1,485.8 252.97,485.16 248.96,485.16C196.23,483.72 144.32,463.16 104.85,428.17C76.05,402.91 53.75,370.3 40.75,334.26C29.06,302.05 24.8,267.19 28.22,233.11C33.61,177.22 60.72,123.89 102.42,86.34Z" style="fill:rgb(35,35,35);fill-rule:nonzero;"/>
        </g>
    </g>
    <g transform="matrix(1.11735,0,0,1.1172,-30.2522,-30.1997)">
        <g id="_-1abbe9ff" serif:id="#1abbe9ff">
            <path d="M197.77,145.79C199.52,137.88 207.86,132.13 215.89,133.57C222.27,134.51 227.68,139.7 228.94,146.01C236.87,184.81 244.36,223.7 252.38,262.47C255.46,238.34 258.39,214.19 261.47,190.06C262.28,182.4 269.28,176.01 277.01,176.04C283.91,175.75 290.5,180.54 292.55,187.1C299.67,208.25 306.64,229.44 313.75,250.59C317.65,223.37 321.53,196.15 325.43,168.93C326.05,163.59 329.42,158.65 334.29,156.33C341.81,152.41 351.95,155.8 355.59,163.45C368.41,188.94 381.1,214.49 393.9,240C399.59,240.32 405.53,239.16 411.02,241.05C417.38,243.44 421.83,250.18 421.29,256.99C420.95,264.85 413.98,271.79 406.09,271.94C400.72,272.11 395.34,271.93 389.97,272.01C386,271.93 381.85,272.41 378.09,270.84C374.5,269.45 371.51,266.67 369.77,263.25C363.09,250.14 356.69,236.89 349.95,223.82C345.11,256.8 340.56,289.82 335.7,322.8C334.49,330.61 326.81,336.64 318.93,335.93C312.66,335.6 306.91,331.18 304.92,325.24C298,304.86 291.34,284.39 284.43,264.01C280.3,297.36 276.12,330.71 271.93,364.06C271.36,370.31 266.91,376.01 260.88,377.86C252.25,380.94 242.03,374.95 240.38,365.97C231.07,320.16 222.16,274.26 212.75,228.48C207.46,252.98 202.28,277.51 196.95,302C195.41,309.98 187.17,315.79 179.13,314.48C173.28,313.75 168.18,309.46 166.24,303.93C159.91,287.2 153.7,270.43 147.36,253.7C144.37,257.8 143.18,262.98 139.77,266.8C136.6,270.33 131.81,272.16 127.1,272C120.06,271.96 113.02,272.08 105.99,271.95C98.42,271.8 91.57,265.46 90.79,257.94C89.83,251.08 93.95,243.95 100.34,241.31C105.96,239.02 112.2,240.36 118.1,239.99C123.67,228.92 129.18,217.82 134.74,206.75C137.19,201.6 142.41,197.9 148.11,197.43C154.76,196.76 161.47,200.88 163.99,207.04C168.58,218.38 172.29,230.09 177.17,241.29C184.2,209.5 190.8,177.6 197.77,145.79Z" style="fill:rgb(26,187,233);fill-rule:nonzero;"/>
        </g>
    </g>
</svg>
